<svg xmlns="http://www.w3.org/2000/svg" xmlns:xlink="http://www.w3.org/1999/xlink" viewBox="0 0 505 505.47"><defs><style>.cls-1{fill:none;}.cls-2{fill:#231f20;}.cls-3{fill:url(#_10_dpi_90_);}.cls-4{fill:#fff;}.cls-5{fill:url(#_10_dpi_20_);}.cls-6{stroke:#fff;stroke-miterlimit:10;stroke-width:2px;}</style><pattern id="_10_dpi_90_" data-name="10 dpi 90%" width="28.8" height="28.8" patternUnits="userSpaceOnUse" viewBox="0 0 28.8 28.8"><rect class="cls-1" width="28.8" height="28.8"/><path class="cls-2" d="M28.8,35.28a6.48,6.48,0,1,0-6.48-6.48A6.48,6.48,0,0,0,28.8,35.28Z"/><path class="cls-2" d="M14.4,35.28A6.48,6.48,0,1,0,7.92,28.8,6.48,6.48,0,0,0,14.4,35.28Z"/><path class="cls-2" d="M28.8,20.88a6.48,6.48,0,1,0-6.48-6.48A6.48,6.48,0,0,0,28.8,20.88Z"/><path class="cls-2" d="M14.4,20.88A6.48,6.48,0,1,0,7.92,14.4,6.48,6.48,0,0,0,14.4,20.88Z"/><path class="cls-2" d="M7.2,28.08A6.48,6.48,0,1,0,.72,21.6,6.48,6.48,0,0,0,7.2,28.08Z"/><path class="cls-2" d="M21.6,28.08a6.48,6.48,0,1,0-6.48-6.48A6.48,6.48,0,0,0,21.6,28.08Z"/><path class="cls-2" d="M7.2,13.68A6.48,6.48,0,1,0,.72,7.2,6.48,6.48,0,0,0,7.2,13.68Z"/><path class="cls-2" d="M21.6,13.68A6.48,6.48,0,1,0,15.12,7.2,6.48,6.48,0,0,0,21.6,13.68Z"/><path class="cls-2" d="M0,35.28a6.48,6.48,0,1,0,0-13A6.48,6.48,0,0,0-6.48,28.8,6.48,6.48,0,0,0,0,35.28Z"/><path class="cls-2" d="M0,20.88a6.48,6.48,0,0,0,0-13A6.48,6.48,0,0,0-6.48,14.4,6.48,6.48,0,0,0,0,20.88Z"/><path class="cls-2" d="M28.8,6.48A6.48,6.48,0,0,0,35.28,0,6.48,6.48,0,0,0,28.8-6.48,6.48,6.48,0,0,0,22.32,0,6.48,6.48,0,0,0,28.8,6.48Z"/><path class="cls-2" d="M14.4,6.48A6.48,6.48,0,0,0,20.88,0,6.48,6.48,0,0,0,14.4-6.48,6.48,6.48,0,0,0,7.92,0,6.48,6.48,0,0,0,14.4,6.48Z"/><circle class="cls-2" r="6.48" transform="translate(0 0) rotate(-85.27)"/></pattern><pattern id="_10_dpi_20_" data-name="10 dpi 20%" width="28.8" height="28.8" patternUnits="userSpaceOnUse" viewBox="0 0 28.8 28.8"><rect class="cls-1" width="28.8" height="28.8"/><path class="cls-2" d="M28.8,30.24a1.44,1.44,0,1,0-1.44-1.44A1.44,1.44,0,0,0,28.8,30.24Z"/><path class="cls-2" d="M14.4,30.24A1.44,1.44,0,1,0,13,28.8,1.44,1.44,0,0,0,14.4,30.24Z"/><path class="cls-2" d="M28.8,15.84a1.44,1.44,0,1,0-1.44-1.44A1.44,1.44,0,0,0,28.8,15.84Z"/><path class="cls-2" d="M14.4,15.84A1.44,1.44,0,1,0,13,14.4,1.44,1.44,0,0,0,14.4,15.84Z"/><path class="cls-2" d="M7.2,23A1.44,1.44,0,1,0,5.76,21.6,1.44,1.44,0,0,0,7.2,23Z"/><path class="cls-2" d="M21.6,23a1.44,1.44,0,1,0-1.44-1.44A1.44,1.44,0,0,0,21.6,23Z"/><path class="cls-2" d="M7.2,8.64A1.44,1.44,0,1,0,5.76,7.2,1.44,1.44,0,0,0,7.2,8.64Z"/><path class="cls-2" d="M21.6,8.64A1.44,1.44,0,1,0,20.16,7.2,1.44,1.44,0,0,0,21.6,8.64Z"/><path class="cls-2" d="M0,30.24A1.44,1.44,0,0,0,1.44,28.8,1.45,1.45,0,0,0,0,27.36,1.44,1.44,0,0,0-1.44,28.8,1.43,1.43,0,0,0,0,30.24Z"/><path class="cls-2" d="M0,15.84A1.44,1.44,0,0,0,1.44,14.4,1.45,1.45,0,0,0,0,13,1.44,1.44,0,0,0-1.44,14.4,1.43,1.43,0,0,0,0,15.84Z"/><path class="cls-2" d="M28.8,1.44A1.45,1.45,0,0,0,30.24,0,1.44,1.44,0,0,0,28.8-1.44,1.43,1.43,0,0,0,27.36,0,1.44,1.44,0,0,0,28.8,1.44Z"/><path class="cls-2" d="M14.4,1.44A1.45,1.45,0,0,0,15.84,0,1.44,1.44,0,0,0,14.4-1.44,1.43,1.43,0,0,0,13,0,1.44,1.44,0,0,0,14.4,1.44Z"/><path class="cls-2" d="M0,1.44A1.45,1.45,0,0,0,1.44,0,1.44,1.44,0,0,0,0-1.44,1.43,1.43,0,0,0-1.44,0,1.44,1.44,0,0,0,0,1.44Z"/></pattern></defs><title>Asset 1</title><g id="Layer_2" data-name="Layer 2"><g id="Layer_3" data-name="Layer 3"><circle class="cls-3" cx="254" cy="252.73" r="250.95"/></g><g id="Layer_2-2" data-name="Layer 2"><path class="cls-4" d="M164.57,218.78c0-95.47,57.4-177.48,139.55-213.54A253.63,253.63,0,0,0,252.73,0C113.15,0,0,113.15,0,252.73S113.15,505.47,252.73,505.47a251.54,251.54,0,0,0,155.82-53.83c-3.59.17-7.2.28-10.84.28C269,451.92,164.57,347.54,164.57,218.78Z"/><path class="cls-5" d="M168.41,248.16C158.5,110.86,235.85,35.39,296.18,8.91c-12.19-2.52-91.68,12-139.68,58-66.75,64-78,112-78,185.87,0,102.5,90.22,238.44,215.63,238.44,43.19,0,81.63-16.2,113.16-40.94-2.71,1-4,1.62-6.7,1.62C306,451.85,177.76,377.84,168.41,248.16Z"/></g><g id="Layer_4" data-name="Layer 4"><polygon class="cls-6" points="387.98 261.33 387.98 116.35 402.35 101.98 387.98 86.31 351.41 104.59 334.43 132.02 318.75 162.06 263.9 232.59 263.9 244.35 244.31 243.04 151.57 216.27 108.47 205.17 108.47 216.92 142.43 243.04 191.28 300.51 241.69 325.33 308.31 331.86 395.55 312.27 445.45 287.45 482.02 286.14 488.55 273.08 466.35 261.33 418.02 250.23 387.98 261.33"/></g></g></svg>