<svg xmlns="http://www.w3.org/2000/svg" viewBox="0 0 507.72 505.47"><defs><style>.cls-1{fill:#8c9496;}.cls-2{fill:#c79746;}.cls-3{fill:#a38660;}.cls-4{fill:#232b42;stroke:#d5e1e8;stroke-miterlimit:10;stroke-width:2px;}</style></defs><title>markAsset 4</title><g id="Layer_2" data-name="Layer 2"><g id="Layer_1-2" data-name="Layer 1"><circle class="cls-1" cx="256.72" cy="251.81" r="250.95"/><path class="cls-2" d="M164.57,218.78c0-95.47,57.4-177.48,139.55-213.54A253.63,253.63,0,0,0,252.73,0C113.15,0,0,113.15,0,252.73S113.15,505.47,252.73,505.47a251.54,251.54,0,0,0,155.82-53.83c-3.59.17-7.2.28-10.84.28C269,451.92,164.57,347.54,164.57,218.78Z"/><path class="cls-3" d="M171.12,244.54C154.84,107.85,243.57,31.77,303.89,5.29c-12.18-2.52-91.67,12-139.67,58-66.75,64-78,112-78,185.87,0,102.5,56.89,149.23,77.67,170.27,59.54,60.3,216.8,54.29,248.33,29.56-2.71,1-23,.36-26,.3C297.22,447.44,186.22,371.24,171.12,244.54Z"/><polygon class="cls-4" points="390.7 260.41 390.7 115.43 405.06 101.06 390.7 85.39 354.13 103.67 337.14 131.1 321.47 161.14 266.61 231.67 266.61 243.43 247.02 242.12 154.29 215.34 111.19 204.24 111.19 216 145.15 242.12 193.99 299.59 244.41 324.41 311.02 330.94 398.27 311.34 448.17 286.53 484.74 285.22 491.27 272.16 469.06 260.41 420.74 249.3 390.7 260.41"/></g></g></svg>